<svg xmlns="http://www.w3.org/2000/svg" width="250" height="103" fill="none" viewBox="0 0 250 103">
  <g opacity=".2">
    <path fill="#B4C0BC" d="m34.206.479-16.61 9.515v19.023l16.61 9.507 16.618-9.507V9.994L34.206.48Zm181.36 63.997-16.609 9.515v19.023l16.609 9.507 16.618-9.507V73.99l-16.618-9.515Z"/>
    <path fill="#525E5A" d="m232.802 35.026-16.61 9.516v19.022l16.61 9.508 16.617-9.508V44.542l-16.617-9.516Z"/>
    <path fill="#7F8B87" d="m198.28 35.026-16.61 9.516v19.022l16.61 9.508 16.617-9.508V44.542l-16.617-9.516Z"/>
    <path fill="#525E5A" d="m51.348 30.131-16.61 9.515V58.67l16.61 9.508 16.618-9.508V39.646l-16.618-9.515Z"/>
    <path fill="#7F8B87" d="M16.974 29.905.364 39.42v19.023l16.61 9.507 16.617-9.507V39.42l-16.617-9.515Z"/>
  </g>
</svg>
