<svg xmlns="http://www.w3.org/2000/svg" width="250" height="167" fill="none" viewBox="0 0 250 167">
  <g opacity=".2">
    <path fill="#B4C0BC" d="m34.206 32.479-16.61 9.515v19.023l16.61 9.507 16.618-9.507V41.994L34.206 32.48Zm181.36 63.997-16.609 9.515v19.023l16.609 9.507 16.618-9.507v-19.023l-16.618-9.515Z"/>
    <path fill="#525E5A" d="m232.802 67.026-16.61 9.516v19.022l16.61 9.508 16.617-9.508V76.542l-16.617-9.516Z"/>
    <path fill="#7F8B87" d="m198.28 67.026-16.61 9.516v19.022l16.61 9.508 16.617-9.508V76.542l-16.617-9.516Z"/>
    <path fill="#525E5A" d="m51.348 62.131-16.61 9.515V90.67l16.61 9.508 16.618-9.508V71.646l-16.618-9.515Z"/>
    <path fill="#7F8B87" d="M16.974 61.905.364 71.42v19.023l16.61 9.507 16.617-9.507V71.42l-16.617-9.515Z"/>
  </g>
  <path fill="#40A828" d="M124.983 0 52 41.767v83.5L124.983 167 198 125.267v-83.5L124.983 0Z"/>
</svg>
